<svg width="1316" height="450" viewBox="0 0 1316 450" fill="none" xmlns="http://www.w3.org/2000/svg">
<path d="M152.734 375.601C138.458 375.601 126.583 373.2 117.108 368.399C107.633 363.472 100.116 357.093 94.5573 349.26C88.9986 341.301 85.0823 332.647 82.8083 323.299C80.5343 313.823 79.3973 304.601 79.3973 295.631C79.3973 290.957 79.3973 286.093 79.3973 281.04C79.3973 275.86 79.3973 270.681 79.3973 265.501V170.751H120.708V259.626C120.708 264.174 120.708 268.659 120.708 273.081C120.708 277.376 120.708 281.419 120.708 285.209C120.708 294.937 121.972 303.906 124.498 312.118C127.025 320.203 131.447 326.773 137.763 331.826C144.206 336.753 153.176 339.216 164.672 339.216C175.411 339.216 184.759 336.058 192.718 329.741C200.677 323.298 206.868 315.213 211.289 305.485C215.711 295.631 217.922 285.777 217.922 275.923L235.924 285.588C235.924 297.211 233.966 308.391 230.05 319.129C226.26 329.868 220.764 339.532 213.563 348.123C206.362 356.587 197.582 363.283 187.223 368.21C176.99 373.137 165.493 375.601 152.734 375.601ZM217.922 372V170.751H259.043V372H217.922ZM454.353 372V279.145C454.353 273.713 454.353 269.101 454.353 265.311C454.353 261.521 454.353 257.984 454.353 254.699C454.353 244.845 452.837 236.192 449.805 228.738C446.773 221.158 441.782 215.283 434.834 211.114C427.886 206.819 418.6 204.671 406.978 204.671C396.745 204.671 387.459 207.198 379.121 212.251C370.909 217.305 364.34 224.19 359.413 232.907C354.612 241.498 352.212 251.288 352.212 262.279L334.589 253.562C334.589 237.265 338.442 222.674 346.148 209.788C353.854 196.776 364.151 186.479 377.037 178.899C390.049 171.319 404.261 167.53 419.674 167.53C435.592 167.53 449.173 170.625 460.417 176.815C471.787 182.879 480.44 191.596 486.378 202.966C492.442 214.21 495.474 227.664 495.474 243.329C495.474 249.141 495.474 255.584 495.474 262.658C495.474 269.733 495.474 276.555 495.474 283.124V372H454.353ZM311.091 372V170.751H352.212V372H311.091ZM572.05 372V204.861H528.654V170.751H572.05V148.769C572.05 138.41 573.313 129.124 575.84 120.912C578.493 112.701 582.157 105.626 586.831 99.6885C591.505 93.6245 597.001 88.6343 603.317 84.718C609.76 80.8017 616.772 77.896 624.352 76.001C632.058 73.9797 640.08 72.969 648.418 72.969C655.24 72.969 660.546 73.4112 664.336 74.2955C668.253 75.0535 670.843 75.7483 672.106 76.38V110.679C670.59 110.174 668 109.606 664.336 108.974C660.673 108.342 656.756 108.026 652.587 108.026C644.502 108.026 637.87 109.227 632.69 111.627C627.51 114.027 623.468 117.375 620.562 121.67C617.656 125.839 615.635 130.703 614.498 136.262C613.487 141.694 612.982 147.506 612.982 153.696V170.751H670.211V204.861H612.982V372H572.05ZM792.486 375.79C771.767 375.79 753.449 371.305 737.531 362.335C721.739 353.366 709.358 341.048 700.389 325.383C691.545 309.591 687.124 291.526 687.124 271.186C687.124 250.973 691.545 233.096 700.389 217.557C709.358 201.892 721.739 189.701 737.531 180.984C753.449 172.141 771.767 167.719 792.486 167.719C813.204 167.719 831.46 172.141 847.251 180.984C863.169 189.701 875.55 201.892 884.393 217.557C893.363 233.096 897.848 250.973 897.848 271.186C897.848 291.526 893.363 309.591 884.393 325.383C875.55 341.048 863.169 353.366 847.251 362.335C831.46 371.305 813.204 375.79 792.486 375.79ZM792.486 340.543C805.119 340.543 816.236 337.7 825.838 332.015C835.439 326.33 842.956 318.308 848.388 307.949C853.821 297.463 856.537 285.209 856.537 271.186C856.537 257.289 853.821 245.224 848.388 234.991C842.956 224.758 835.439 216.863 825.838 211.304C816.236 205.745 805.119 202.966 792.486 202.966C779.979 202.966 768.861 205.745 759.134 211.304C749.532 216.863 742.016 224.758 736.583 234.991C731.151 245.224 728.435 257.289 728.435 271.186C728.435 285.209 731.151 297.463 736.583 307.949C742.016 318.308 749.532 326.33 759.134 332.015C768.861 337.7 779.979 340.543 792.486 340.543ZM987.016 75.8115V372H946.463V75.8115H987.016ZM1139.29 375.79C1118.57 375.79 1100.25 371.305 1084.33 362.335C1068.54 353.366 1056.16 341.048 1047.19 325.383C1038.35 309.591 1033.92 291.526 1033.92 271.186C1033.92 250.973 1038.35 233.096 1047.19 217.557C1056.16 201.892 1068.54 189.701 1084.33 180.984C1100.25 172.141 1118.57 167.719 1139.29 167.719C1160 167.719 1178.26 172.141 1194.05 180.984C1209.97 189.701 1222.35 201.892 1231.19 217.557C1240.16 233.096 1244.65 250.973 1244.65 271.186C1244.65 291.526 1240.16 309.591 1231.19 325.383C1222.35 341.048 1209.97 353.366 1194.05 362.335C1178.26 371.305 1160 375.79 1139.29 375.79ZM1139.29 340.543C1151.92 340.543 1163.04 337.7 1172.64 332.015C1182.24 326.33 1189.76 318.308 1195.19 307.949C1200.62 297.463 1203.34 285.209 1203.34 271.186C1203.34 257.289 1200.62 245.224 1195.19 234.991C1189.76 224.758 1182.24 216.863 1172.64 211.304C1163.04 205.745 1151.92 202.966 1139.29 202.966C1126.78 202.966 1115.66 205.745 1105.93 211.304C1096.33 216.863 1088.82 224.758 1083.38 234.991C1077.95 245.224 1075.23 257.289 1075.23 271.186C1075.23 285.209 1077.95 297.463 1083.38 307.949C1088.82 318.308 1096.33 326.33 1105.93 332.015C1115.66 337.7 1126.78 340.543 1139.29 340.543Z" fill="#74C443"/>
</svg>
