<svg width="250" height="250" viewBox="0 0 250 250" fill="none" xmlns="http://www.w3.org/2000/svg">
<g clip-path="url(#clip0_65_2)">
<path d="M109.399 227.601C95.1232 227.601 83.2478 225.2 73.7728 220.399C64.2978 215.472 56.781 209.093 51.2223 201.26C45.6637 193.301 41.7473 184.647 39.4733 175.299C37.1993 165.823 36.0623 156.601 36.0623 147.631C36.0623 142.957 36.0623 138.093 36.0623 133.04C36.0623 127.86 36.0623 122.681 36.0623 117.501V22.751H77.3733V111.626C77.3733 116.174 77.3733 120.659 77.3733 125.081C77.3733 129.376 77.3733 133.419 77.3733 137.209C77.3733 146.937 78.6367 155.906 81.1633 164.118C83.69 172.203 88.1117 178.773 94.4283 183.826C100.871 188.753 109.841 191.216 121.337 191.216C132.076 191.216 141.424 188.058 149.383 181.741C157.342 175.298 163.533 167.213 167.954 157.485C172.376 147.631 174.587 137.777 174.587 127.923L192.589 137.588C192.589 149.211 190.631 160.391 186.715 171.129C182.925 181.868 177.429 191.532 170.228 200.123C163.027 208.587 154.247 215.283 143.888 220.21C133.655 225.137 122.158 227.601 109.399 227.601ZM174.587 224V22.751H215.708V224H174.587Z" fill="#74C443"/>
</g>
<defs>
<clipPath id="clip0_65_2">
<rect width="250" height="250" fill="white"/>
</clipPath>
</defs>
</svg>
